<svg width="48" height="48" viewBox="0 0 48 48" fill="none" xmlns="http://www.w3.org/2000/svg">
<path fill-rule="evenodd" clip-rule="evenodd" d="M12.18 9.58C5.02 12.62 0 19.72 0 28C0 39.04 8.96 48 20 48C28.28 48 35.38 42.98 38.42 35.82L46.84 17.18C47.58 15.62 48 13.86 48 12C48 5.38 42.62 0 36 0C34.14 0 32.4 0.42 30.82 1.16L12.18 9.58Z" fill="#072146"/>
<path fill-rule="evenodd" clip-rule="evenodd" d="M36 4C34.78 4 33.64 4.26 32.48 4.82L13.76 13.26C7.84 15.78 4 21.56 4 28C4 36.82 11.18 44 20 44C26.44 44 32.22 40.18 34.76 34.16L43.22 15.44C43.74 14.36 44 13.2 44 12C44 7.58 40.42 4 36 4Z" fill="white"/>
<path d="M20 40C26.6274 40 32 34.6274 32 28C32 21.3726 26.6274 16 20 16C13.3726 16 8 21.3726 8 28C8 34.6274 13.3726 40 20 40Z" fill="#F35E61"/>
<path d="M20 32C22.2091 32 24 30.2091 24 28C24 25.7909 22.2091 24 20 24C17.7909 24 16 25.7909 16 28C16 30.2091 17.7909 32 20 32Z" fill="white"/>
<path d="M36 16C38.2091 16 40 14.2091 40 12C40 9.79086 38.2091 8 36 8C33.7909 8 32 9.79086 32 12C32 14.2091 33.7909 16 36 16Z" fill="#02A5A5"/>
</svg>
