<svg width="16" height="16" viewBox="0 0 16 16" fill="none" xmlns="http://www.w3.org/2000/svg">
<style>
    .color {
        fill: #072146;
    }
    @media (prefers-color-scheme: dark) {
        .color {
            fill: #FFFFFF;
        }
    }
</style>
<path fill-rule="evenodd" clip-rule="evenodd" d="M0 9.33333C0 6.57333 1.67333 4.20667 4.06 3.19333L10.2733 0.386667C10.8 0.14 11.38 0 12 0C14.2067 0 16 1.79333 16 4C16 4.62 15.86 5.20667 15.6133 5.72667L12.8067 11.94C11.7933 14.3267 9.42667 16 6.66667 16C2.98667 16 0 13.0133 0 9.33333ZM10.8267 1.60667C11.2133 1.42 11.5933 1.33333 12 1.33333C13.4733 1.33333 14.6667 2.52667 14.6667 4C14.6667 4.4 14.58 4.78667 14.4067 5.14667L11.5867 11.3867C10.74 13.3933 8.81333 14.6667 6.66667 14.6667C3.72667 14.6667 1.33333 12.2733 1.33333 9.33333C1.33333 7.18667 2.61333 5.26 4.58667 4.42L10.8267 1.60667Z" class="color"/>
<path fill-rule="evenodd" clip-rule="evenodd" d="M10.6666 9.33334C10.6666 11.5425 8.87576 13.3333 6.66663 13.3333C4.45749 13.3333 2.66663 11.5425 2.66663 9.33334C2.66663 7.1242 4.45749 5.33334 6.66663 5.33334C8.87576 5.33334 10.6666 7.1242 10.6666 9.33334ZM8.00004 9.33333C8.00004 10.0697 7.40309 10.6667 6.66671 10.6667C5.93033 10.6667 5.33337 10.0697 5.33337 9.33333C5.33337 8.59695 5.93033 8 6.66671 8C7.40309 8 8.00004 8.59695 8.00004 9.33333Z" class="color"/>
<path d="M12 5.33332C12.7363 5.33332 13.3333 4.73637 13.3333 3.99999C13.3333 3.26361 12.7363 2.66666 12 2.66666C11.2636 2.66666 10.6666 3.26361 10.6666 3.99999C10.6666 4.73637 11.2636 5.33332 12 5.33332Z" class="color"/>
</svg>
